<svg width="8" height="28" viewBox="0 0 8 28" fill="none" xmlns="http://www.w3.org/2000/svg">
<path d="M4 9.93548C6.21111 9.93548 8 11.7532 8 14C8 16.2468 6.21111 18.0645 4 18.0645C1.78889 18.0645 0 16.2468 0 14C0 11.7532 1.78889 9.93548 4 9.93548ZM0 4.06452C0 6.31129 1.78889 8.12903 4 8.12903C6.21111 8.12903 8 6.31129 8 4.06452C8 1.81774 6.21111 0 4 0C1.78889 0 0 1.81774 0 4.06452ZM0 23.9355C0 26.1823 1.78889 28 4 28C6.21111 28 8 26.1823 8 23.9355C8 21.6887 6.21111 19.871 4 19.871C1.78889 19.871 0 21.6887 0 23.9355Z" fill="#F4B41A"/>
</svg>
